<mxfile host="app.diagrams.net" modified="2023-06-28T07:18:16.062Z" agent="Mozilla/5.0 (Windows NT 10.0; Win64; x64) AppleWebKit/537.36 (KHTML, like Gecko) Chrome/114.0.0.0 Safari/537.36" etag="N-s4rrshcmDMbNTdGXTV" version="21.5.0" type="github">
  <diagram name="Page-1" id="T4evkczM5tz2uir8NdWq">
    <mxGraphModel dx="1434" dy="1856" grid="1" gridSize="10" guides="1" tooltips="1" connect="1" arrows="1" fold="1" page="1" pageScale="1" pageWidth="850" pageHeight="1100" math="0" shadow="0">
      <root>
        <mxCell id="0" />
        <mxCell id="1" parent="0" />
        <mxCell id="0miN6D5ZhB9mtvLMDJml-16" value="" style="rounded=0;whiteSpace=wrap;html=1;fillColor=#f5f5f5;fontColor=#333333;strokeColor=#666666;" vertex="1" parent="1">
          <mxGeometry x="390" y="-10" width="750" height="720" as="geometry" />
        </mxCell>
        <mxCell id="0miN6D5ZhB9mtvLMDJml-5" value="" style="rounded=1;whiteSpace=wrap;html=1;fillColor=#fff2cc;strokeColor=#d6b656;" vertex="1" parent="1">
          <mxGeometry x="530" y="60" width="530" height="210" as="geometry" />
        </mxCell>
        <mxCell id="0miN6D5ZhB9mtvLMDJml-3" value="" style="rounded=1;whiteSpace=wrap;html=1;fillColor=#f8cecc;strokeColor=#b85450;" vertex="1" parent="1">
          <mxGeometry x="543.75" y="295" width="517.5" height="145" as="geometry" />
        </mxCell>
        <mxCell id="0miN6D5ZhB9mtvLMDJml-2" value="" style="rounded=1;whiteSpace=wrap;html=1;fillColor=#dae8fc;strokeColor=#6c8ebf;" vertex="1" parent="1">
          <mxGeometry x="540" y="465" width="520" height="185" as="geometry" />
        </mxCell>
        <mxCell id="0nl9WSmzOAjqTuigGbIG-6" value="&lt;b&gt;HUAWEI WAF&lt;/b&gt;" style="sketch=0;points=[[0.015,0.015,0],[0.985,0.015,0],[0.985,0.985,0],[0.015,0.985,0],[0.25,0,0],[0.5,0,0],[0.75,0,0],[1,0.25,0],[1,0.5,0],[1,0.75,0],[0.75,1,0],[0.5,1,0],[0.25,1,0],[0,0.75,0],[0,0.5,0],[0,0.25,0]];verticalLabelPosition=bottom;html=1;verticalAlign=top;aspect=fixed;align=center;pointerEvents=1;shape=mxgraph.cisco19.rect;prIcon=web_application_firewall;fillColor=#FAFAFA;strokeColor=#005073;shadow=1;" parent="1" vertex="1">
          <mxGeometry x="151.2" y="56.25" width="137.6" height="107.5" as="geometry" />
        </mxCell>
        <mxCell id="0nl9WSmzOAjqTuigGbIG-9" value="小程序" style="rounded=1;whiteSpace=wrap;html=1;fillColor=#fff2cc;strokeColor=#d6b656;shadow=1;" parent="1" vertex="1">
          <mxGeometry x="435.71" y="180" width="58.57" height="90" as="geometry" />
        </mxCell>
        <mxCell id="0nl9WSmzOAjqTuigGbIG-3" value="&lt;h1&gt;HUAWEI APIG（南北）&lt;/h1&gt;" style="rounded=1;whiteSpace=wrap;html=1;verticalAlign=middle;labelPosition=center;verticalLabelPosition=middle;align=center;labelBackgroundColor=none;labelBorderColor=none;flipV=0;flipH=0;glass=1;shadow=1;rotation=-90;" parent="1" vertex="1">
          <mxGeometry x="860" y="330" width="725" height="30" as="geometry" />
        </mxCell>
        <mxCell id="0nl9WSmzOAjqTuigGbIG-20" value="&lt;div style=&quot;text-align: justify;&quot;&gt;&lt;br&gt;&lt;/div&gt;" style="rounded=1;whiteSpace=wrap;html=1;shadow=0;glass=0;labelBackgroundColor=none;labelBorderColor=none;strokeColor=default;fontFamily=Helvetica;fontSize=12;fontColor=default;fillColor=default;align=left;" parent="1" vertex="1">
          <mxGeometry x="1320" y="70" width="330" height="190" as="geometry" />
        </mxCell>
        <mxCell id="0nl9WSmzOAjqTuigGbIG-21" value="&lt;div style=&quot;text-align: justify;&quot;&gt;&lt;br&gt;&lt;/div&gt;" style="rounded=1;whiteSpace=wrap;html=1;shadow=0;glass=0;labelBackgroundColor=none;labelBorderColor=none;strokeColor=default;fontFamily=Helvetica;fontSize=12;fontColor=default;fillColor=default;align=left;" parent="1" vertex="1">
          <mxGeometry x="2350" y="30" width="350" height="720" as="geometry" />
        </mxCell>
        <mxCell id="0nl9WSmzOAjqTuigGbIG-22" value="&lt;div style=&quot;text-align: justify;&quot;&gt;&lt;br&gt;&lt;/div&gt;" style="rounded=1;whiteSpace=wrap;html=1;shadow=0;glass=0;labelBackgroundColor=none;labelBorderColor=none;strokeColor=default;fontFamily=Helvetica;fontSize=12;fontColor=default;fillColor=default;align=left;" parent="1" vertex="1">
          <mxGeometry x="1940" y="70" width="330" height="180" as="geometry" />
        </mxCell>
        <mxCell id="0nl9WSmzOAjqTuigGbIG-23" value="&lt;div style=&quot;text-align: justify;&quot;&gt;&lt;br&gt;&lt;/div&gt;" style="rounded=0;whiteSpace=wrap;html=1;shadow=0;glass=0;labelBackgroundColor=none;labelBorderColor=none;strokeColor=default;fontFamily=Helvetica;fontSize=12;fontColor=default;fillColor=default;align=left;" parent="1" vertex="1">
          <mxGeometry x="1310" y="440" width="940" height="280" as="geometry" />
        </mxCell>
        <mxCell id="0nl9WSmzOAjqTuigGbIG-25" value="volvowork-member&lt;br&gt;中台会员" style="rounded=1;whiteSpace=wrap;html=1;" parent="1" vertex="1">
          <mxGeometry x="549" y="470" width="95" height="60" as="geometry" />
        </mxCell>
        <mxCell id="0nl9WSmzOAjqTuigGbIG-26" value="volvo-workspace-charge&lt;br&gt;中台充电" style="rounded=1;whiteSpace=wrap;html=1;" parent="1" vertex="1">
          <mxGeometry x="650" y="470" width="95" height="60" as="geometry" />
        </mxCell>
        <mxCell id="0nl9WSmzOAjqTuigGbIG-27" value="volvowork-base-services&lt;br&gt;中台基础" style="rounded=1;whiteSpace=wrap;html=1;" parent="1" vertex="1">
          <mxGeometry x="751" y="470" width="95" height="60" as="geometry" />
        </mxCell>
        <mxCell id="0nl9WSmzOAjqTuigGbIG-28" value="volvowork-shopping-mall&lt;br&gt;中台商城" style="rounded=1;whiteSpace=wrap;html=1;" parent="1" vertex="1">
          <mxGeometry x="852" y="470" width="95" height="60" as="geometry" />
        </mxCell>
        <mxCell id="nDyLXVGqyyg2RE5gqK5G-1" value="volvo-workspace-pc&lt;br&gt;pc后台" style="rounded=1;whiteSpace=wrap;html=1;" parent="1" vertex="1">
          <mxGeometry x="955" y="470" width="95" height="60" as="geometry" />
        </mxCell>
        <mxCell id="nDyLXVGqyyg2RE5gqK5G-2" value="volvo-world-h5&lt;br&gt;沃世界H5" style="rounded=1;whiteSpace=wrap;html=1;" parent="1" vertex="1">
          <mxGeometry x="550" y="70" width="95" height="60" as="geometry" />
        </mxCell>
        <mxCell id="nDyLXVGqyyg2RE5gqK5G-3" value="promotion&lt;br&gt;商城&lt;br&gt;活动推广" style="rounded=1;whiteSpace=wrap;html=1;" parent="1" vertex="1">
          <mxGeometry x="650" y="70" width="95" height="60" as="geometry" />
        </mxCell>
        <mxCell id="nDyLXVGqyyg2RE5gqK5G-4" value="evaluation&lt;br&gt;二手车管理" style="rounded=1;whiteSpace=wrap;html=1;" parent="1" vertex="1">
          <mxGeometry x="750" y="70" width="95" height="60" as="geometry" />
        </mxCell>
        <mxCell id="nDyLXVGqyyg2RE5gqK5G-7" value="dms-vue-sales-report&lt;br&gt;直售报表" style="rounded=1;whiteSpace=wrap;html=1;" parent="1" vertex="1">
          <mxGeometry x="951.25" y="300" width="95" height="60" as="geometry" />
        </mxCell>
        <mxCell id="nDyLXVGqyyg2RE5gqK5G-8" value="dms_service_mob&lt;br&gt;&lt;font style=&quot;font-size: 9px;&quot;&gt;B端H5（销售）&lt;br&gt;透明车间&lt;/font&gt;" style="rounded=1;whiteSpace=wrap;html=1;" parent="1" vertex="1">
          <mxGeometry x="651.25" y="370" width="95" height="60" as="geometry" />
        </mxCell>
        <mxCell id="nDyLXVGqyyg2RE5gqK5G-9" value="dms-vue-after-sales&lt;br&gt;售后管理" style="rounded=1;whiteSpace=wrap;html=1;" parent="1" vertex="1">
          <mxGeometry x="551.25" y="370" width="95" height="60" as="geometry" />
        </mxCell>
        <mxCell id="nDyLXVGqyyg2RE5gqK5G-10" value="dms-vue-sales&lt;br&gt;B端直售" style="rounded=1;whiteSpace=wrap;html=1;" parent="1" vertex="1">
          <mxGeometry x="751.25" y="300" width="95" height="60" as="geometry" />
        </mxCell>
        <mxCell id="nDyLXVGqyyg2RE5gqK5G-11" value="dms-vue-coordinate&lt;br&gt;协同售后" style="rounded=1;whiteSpace=wrap;html=1;" parent="1" vertex="1">
          <mxGeometry x="851.25" y="300" width="95" height="60" as="geometry" />
        </mxCell>
        <mxCell id="nDyLXVGqyyg2RE5gqK5G-12" value="dms-vue&lt;br&gt;B端主应用" style="rounded=1;whiteSpace=wrap;html=1;" parent="1" vertex="1">
          <mxGeometry x="651.25" y="300" width="95" height="60" as="geometry" />
        </mxCell>
        <mxCell id="nDyLXVGqyyg2RE5gqK5G-13" value="dms-admin&lt;br&gt;B端系统权限" style="rounded=1;whiteSpace=wrap;html=1;" parent="1" vertex="1">
          <mxGeometry x="551.25" y="300" width="95" height="60" as="geometry" />
        </mxCell>
        <mxCell id="nDyLXVGqyyg2RE5gqK5G-14" value="volvo-workspace-cms&lt;br&gt;中台内容管理" style="rounded=1;whiteSpace=wrap;html=1;" parent="1" vertex="1">
          <mxGeometry x="752.5" y="540" width="95" height="60" as="geometry" />
        </mxCell>
        <mxCell id="nDyLXVGqyyg2RE5gqK5G-15" value="volvo-workspace-dmf&lt;br&gt;中台活动管理" style="rounded=1;whiteSpace=wrap;html=1;" parent="1" vertex="1">
          <mxGeometry x="549" y="540" width="95" height="60" as="geometry" />
        </mxCell>
        <mxCell id="nDyLXVGqyyg2RE5gqK5G-16" value="volvowork-im&lt;br&gt;IM 前端应用" style="rounded=1;whiteSpace=wrap;html=1;" parent="1" vertex="1">
          <mxGeometry x="850" y="70" width="95" height="60" as="geometry" />
        </mxCell>
        <mxCell id="nDyLXVGqyyg2RE5gqK5G-18" value="basic-data&lt;br&gt;中台车型主数据" style="rounded=1;whiteSpace=wrap;html=1;" parent="1" vertex="1">
          <mxGeometry x="955" y="540" width="95" height="60" as="geometry" />
        </mxCell>
        <mxCell id="nDyLXVGqyyg2RE5gqK5G-19" value="volvo-operation-ms&lt;br&gt;运维中台" style="rounded=1;whiteSpace=wrap;html=1;" parent="1" vertex="1">
          <mxGeometry x="852" y="540" width="95" height="60" as="geometry" />
        </mxCell>
        <mxCell id="nDyLXVGqyyg2RE5gqK5G-20" value="liteCRM&lt;br&gt;线索管理" style="rounded=1;whiteSpace=wrap;html=1;" parent="1" vertex="1">
          <mxGeometry x="550" y="135" width="95" height="60" as="geometry" />
        </mxCell>
        <mxCell id="nDyLXVGqyyg2RE5gqK5G-21" value="4 in 1 call center&lt;br&gt;呼叫中心" style="rounded=1;whiteSpace=wrap;html=1;" parent="1" vertex="1">
          <mxGeometry x="650" y="135" width="95" height="60" as="geometry" />
        </mxCell>
        <mxCell id="nDyLXVGqyyg2RE5gqK5G-23" value="360realtimerendering&lt;br&gt;3D看车" style="rounded=1;whiteSpace=wrap;html=1;" parent="1" vertex="1">
          <mxGeometry x="950" y="135" width="95" height="60" as="geometry" />
        </mxCell>
        <mxCell id="nDyLXVGqyyg2RE5gqK5G-24" value="oc_college&lt;br&gt;云学院运营端" style="rounded=1;whiteSpace=wrap;html=1;" parent="1" vertex="1">
          <mxGeometry x="950" y="70" width="95" height="60" as="geometry" />
        </mxCell>
        <mxCell id="nDyLXVGqyyg2RE5gqK5G-25" value="my-volvo-app-web&lt;br&gt;C端社区" style="rounded=1;whiteSpace=wrap;html=1;" parent="1" vertex="1">
          <mxGeometry x="650" y="200" width="95" height="60" as="geometry" />
        </mxCell>
        <mxCell id="nDyLXVGqyyg2RE5gqK5G-26" value="volvo-activity-h5&lt;br&gt;C端活动" style="rounded=1;whiteSpace=wrap;html=1;" parent="1" vertex="1">
          <mxGeometry x="850" y="135" width="95" height="60" as="geometry" />
        </mxCell>
        <mxCell id="nDyLXVGqyyg2RE5gqK5G-27" value="volvo-direct-selling-mp&lt;br&gt;C端直售" style="rounded=1;whiteSpace=wrap;html=1;" parent="1" vertex="1">
          <mxGeometry x="550" y="200" width="95" height="60" as="geometry" />
        </mxCell>
        <mxCell id="nDyLXVGqyyg2RE5gqK5G-28" value="volvo-direct-selling-dts&lt;br&gt;C端直售" style="rounded=1;whiteSpace=wrap;html=1;" parent="1" vertex="1">
          <mxGeometry x="750" y="135" width="95" height="60" as="geometry" />
        </mxCell>
        <mxCell id="nDyLXVGqyyg2RE5gqK5G-29" value="reiko-frontend&lt;br&gt;中台售后" style="rounded=1;whiteSpace=wrap;html=1;" parent="1" vertex="1">
          <mxGeometry x="650" y="540" width="95" height="60" as="geometry" />
        </mxCell>
        <mxCell id="nDyLXVGqyyg2RE5gqK5G-30" value="volvosc&lt;br&gt;C端短链" style="rounded=1;whiteSpace=wrap;html=1;" parent="1" vertex="1">
          <mxGeometry x="755" y="200" width="95" height="60" as="geometry" />
        </mxCell>
        <mxCell id="0miN6D5ZhB9mtvLMDJml-6" value="C端" style="text;html=1;strokeColor=#3700CC;fillColor=#6a00ff;align=center;verticalAlign=middle;whiteSpace=wrap;rounded=1;shadow=0;glass=0;fontColor=#ffffff;" vertex="1" parent="1">
          <mxGeometry x="985" y="230" width="60" height="30" as="geometry" />
        </mxCell>
        <mxCell id="0miN6D5ZhB9mtvLMDJml-7" value="B端" style="text;html=1;strokeColor=#3700CC;fillColor=#6a00ff;align=center;verticalAlign=middle;whiteSpace=wrap;rounded=1;shadow=0;glass=0;fontColor=#ffffff;" vertex="1" parent="1">
          <mxGeometry x="990" y="400" width="60" height="30" as="geometry" />
        </mxCell>
        <mxCell id="0miN6D5ZhB9mtvLMDJml-8" value="中台" style="text;html=1;strokeColor=#3700CC;fillColor=#6a00ff;align=center;verticalAlign=middle;whiteSpace=wrap;rounded=1;shadow=0;glass=0;fontColor=#ffffff;" vertex="1" parent="1">
          <mxGeometry x="990" y="610" width="60" height="30" as="geometry" />
        </mxCell>
        <mxCell id="0miN6D5ZhB9mtvLMDJml-9" value="" style="shape=flexArrow;endArrow=classic;html=1;rounded=0;" edge="1" parent="1">
          <mxGeometry width="50" height="50" relative="1" as="geometry">
            <mxPoint x="1100" y="139.99797101449298" as="sourcePoint" />
            <mxPoint x="1210" y="141" as="targetPoint" />
            <Array as="points">
              <mxPoint x="1139" y="140.94" />
              <mxPoint x="1149" y="140.94" />
            </Array>
          </mxGeometry>
        </mxCell>
        <mxCell id="0miN6D5ZhB9mtvLMDJml-10" value="Apps" style="outlineConnect=0;strokeColor=#d6b656;fillColor=#fff2cc;dashed=0;verticalLabelPosition=bottom;verticalAlign=top;align=center;html=1;fontSize=12;fontStyle=0;aspect=fixed;shape=mxgraph.aws4.resourceIcon;resIcon=mxgraph.aws4.apps;shadow=1;" vertex="1" parent="1">
          <mxGeometry x="430" y="70" width="70" height="70" as="geometry" />
        </mxCell>
        <mxCell id="0miN6D5ZhB9mtvLMDJml-21" value="" style="shape=flexArrow;endArrow=classic;html=1;rounded=0;" edge="1" parent="1">
          <mxGeometry width="50" height="50" relative="1" as="geometry">
            <mxPoint x="219.8" y="195.5" as="sourcePoint" />
            <mxPoint x="220" y="270" as="targetPoint" />
            <Array as="points">
              <mxPoint x="219.5" y="210.5" />
            </Array>
          </mxGeometry>
        </mxCell>
        <mxCell id="0miN6D5ZhB9mtvLMDJml-23" value="HUWEI Cloud CDN" style="shape=mxgraph.gcp2.doubleRect;strokeColor=#dddddd;shadow=1;strokeWidth=1;rounded=1;absoluteArcSize=1;arcSize=2;fontStyle=1" vertex="1" parent="1">
          <mxGeometry x="140" y="289.5" width="160" height="88" as="geometry" />
        </mxCell>
        <mxCell id="0miN6D5ZhB9mtvLMDJml-24" value="" style="editableCssRules=.*;html=1;fontColor=#999999;shape=image;verticalLabelPosition=middle;labelBackgroundColor=#ffffff;verticalAlign=middle;labelPosition=right;align=left;spacingLeft=20;part=1;points=[];imageAspect=0;image=data:image/svg+xml,PHN2ZyB4bWxucz0iaHR0cDovL3d3dy53My5vcmcvMjAwMC9zdmciIHhtbG5zOnY9Imh0dHBzOi8vdmVjdGEuaW8vbmFubyIgd2lkdGg9IjIwIiBoZWlnaHQ9IjIwIiB2aWV3Qm94PSIwIDAgMjAgMjAiPiYjeGE7CTxzdHlsZSB0eXBlPSJ0ZXh0L2NzcyI+JiN4YTsJLnN0MHtmaWxsOiM0Mjg1ZjQ7fSYjeGE7CS5zdDF7ZmlsbDojNjY5ZGY2O30mI3hhOwkuc3Qye2ZpbGw6I2FlY2JmYTt9JiN4YTsJPC9zdHlsZT4mI3hhOwk8cGF0aCBjbGFzcz0ic3QxIiBkPSJNMTMuMTMgNS42M1YzLjIxTDEwIDB2Mi40MXptMy43NSA3LjVMMjAgMTBoLTIuNWwtMy4xMiAzLjEzem0tMTMuNzUgMEwwIDEwaDIuNWwzLjEzIDMuMTN6bTEwIDEuMjV2Mi40MUwxMCAyMHYtMi40MXoiIGZpbGwtcnVsZT0iZXZlbm9kZCIvPiYjeGE7CTxwYXRoIGNsYXNzPSJzdDIiIGQ9Ik02Ljg4IDUuNjNMMTAgMi40MVYwTDYuODggMy4yMXpNMTcuNSAxMEgyMGwtMy4xMi0zLjEyaC0yLjV6bS0xNSAwSDBsMy4xMy0zLjEyaDIuNXptNC4zOCA0LjM4TDEwIDE3LjU5VjIwbC0zLjEyLTMuMjF6bTAtNy41aDYuMjV2Ni4yNUg2Ljg4eiIgZmlsbC1ydWxlPSJldmVub2RkIi8+JiN4YTsJPHBhdGggY2xhc3M9InN0MSIgZD0iTTYuODggMTMuMTNsNi4yNS02LjI1djYuMjV6IiBmaWxsLXJ1bGU9ImV2ZW5vZGQiLz4mI3hhOwk8cGF0aCBjbGFzcz0ic3QwIiBkPSJNMTAgMTBsMy4xMy0zLjEydjYuMjV6IiBmaWxsLXJ1bGU9ImV2ZW5vZGQiLz4mI3hhOzwvc3ZnPg==;" vertex="1" parent="0miN6D5ZhB9mtvLMDJml-23">
          <mxGeometry width="30" height="30" relative="1" as="geometry">
            <mxPoint x="15" y="15" as="offset" />
          </mxGeometry>
        </mxCell>
        <mxCell id="0miN6D5ZhB9mtvLMDJml-26" value="" style="shape=flexArrow;endArrow=classic;html=1;rounded=0;" edge="1" parent="1">
          <mxGeometry width="50" height="50" relative="1" as="geometry">
            <mxPoint x="320" y="328" as="sourcePoint" />
            <mxPoint x="377" y="328" as="targetPoint" />
          </mxGeometry>
        </mxCell>
        <mxCell id="0miN6D5ZhB9mtvLMDJml-30" value="" style="shape=flexArrow;endArrow=classic;html=1;rounded=0;" edge="1" parent="1">
          <mxGeometry width="50" height="50" relative="1" as="geometry">
            <mxPoint x="1090" y="376.497971014493" as="sourcePoint" />
            <mxPoint x="1210" y="377.5" as="targetPoint" />
            <Array as="points">
              <mxPoint x="1129" y="377.44" />
              <mxPoint x="1139" y="377.44" />
            </Array>
          </mxGeometry>
        </mxCell>
        <mxCell id="0miN6D5ZhB9mtvLMDJml-31" value="" style="shape=flexArrow;endArrow=classic;html=1;rounded=0;" edge="1" parent="1">
          <mxGeometry width="50" height="50" relative="1" as="geometry">
            <mxPoint x="1090" y="579.497971014493" as="sourcePoint" />
            <mxPoint x="1210" y="580.5" as="targetPoint" />
            <Array as="points">
              <mxPoint x="1129" y="580.44" />
              <mxPoint x="1139" y="580.44" />
            </Array>
          </mxGeometry>
        </mxCell>
        <mxCell id="0miN6D5ZhB9mtvLMDJml-37" value="" style="strokeColor=#dddddd;shadow=1;strokeWidth=1;rounded=1;absoluteArcSize=1;arcSize=2;" vertex="1" parent="1">
          <mxGeometry x="345" y="500" width="160" height="80" as="geometry" />
        </mxCell>
        <mxCell id="0miN6D5ZhB9mtvLMDJml-38" value="Cloud&#xa;Storage" style="editableCssRules=.*;html=1;fontColor=#999999;shape=image;verticalLabelPosition=middle;labelBackgroundColor=#ffffff;verticalAlign=middle;labelPosition=right;align=left;spacingLeft=20;part=1;points=[];imageAspect=0;image=data:image/svg+xml,PHN2ZyB4bWxucz0iaHR0cDovL3d3dy53My5vcmcvMjAwMC9zdmciIHhtbG5zOnY9Imh0dHBzOi8vdmVjdGEuaW8vbmFubyIgd2lkdGg9IjIwIiBoZWlnaHQ9IjE2IiB2aWV3Qm94PSIwIDAgMjAgMTYiPiYjeGE7CTxzdHlsZSB0eXBlPSJ0ZXh0L2NzcyI+JiN4YTsJLnN0MHtmaWxsOiM0Mjg1ZjQ7fSYjeGE7CS5zdDF7ZmlsbDojNjY5ZGY2O30mI3hhOwkuc3Qye2ZpbGw6I2FlY2JmYTt9JiN4YTsJLnN0M3tmaWxsOiNmZmY7fSYjeGE7CTwvc3R5bGU+JiN4YTsJPHBhdGggY2xhc3M9InN0MiIgZD0iTTAgMGgyMHY3SDB6Ii8+JiN4YTsJPHBhdGggY2xhc3M9InN0MSIgZD0iTTE4IDBoMnY3aC0yeiIvPiYjeGE7CTxwYXRoIGNsYXNzPSJzdDAiIGQ9Ik0xOCA3bDItN2gtMnoiLz4mI3hhOwk8cGF0aCBjbGFzcz0ic3QxIiBkPSJNMCAwaDJ2N0gweiIvPiYjeGE7CTxnIGNsYXNzPSJzdDMiPiYjeGE7CQk8cGF0aCBkPSJNNCAzaDZ2MUg0eiIvPiYjeGE7CQk8cmVjdCB4PSIxMyIgeT0iMiIgd2lkdGg9IjMiIGhlaWdodD0iMyIgcng9IjEuNSIvPiYjeGE7CTwvZz4mI3hhOwk8cGF0aCBjbGFzcz0ic3QyIiBkPSJNMCA5aDIwdjdIMHoiLz4mI3hhOwk8cGF0aCBjbGFzcz0ic3QxIiBkPSJNMTggOWgydjdoLTJ6Ii8+JiN4YTsJPHBhdGggY2xhc3M9InN0MCIgZD0iTTE4IDE2bDItN2gtMnoiLz4mI3hhOwk8cGF0aCBjbGFzcz0ic3QxIiBkPSJNMCA5aDJ2N0gweiIvPiYjeGE7CTxnIGNsYXNzPSJzdDMiPiYjeGE7CQk8cGF0aCBkPSJNNCAxMmg2djFINHoiLz4mI3hhOwkJPHJlY3QgeD0iMTMiIHk9IjExIiB3aWR0aD0iMyIgaGVpZ2h0PSIzIiByeD0iMS41Ii8+JiN4YTsJPC9nPiYjeGE7PC9zdmc+;" vertex="1" parent="0miN6D5ZhB9mtvLMDJml-37">
          <mxGeometry width="30" height="24" relative="1" as="geometry">
            <mxPoint x="15" y="18" as="offset" />
          </mxGeometry>
        </mxCell>
        <mxCell id="0miN6D5ZhB9mtvLMDJml-44" value="&lt;h1&gt;&lt;font style=&quot;font-size: 18px;&quot;&gt;APIG（东西）&lt;/font&gt;&lt;/h1&gt;" style="rounded=1;whiteSpace=wrap;html=1;verticalAlign=middle;labelPosition=center;verticalLabelPosition=middle;align=center;labelBackgroundColor=none;labelBorderColor=none;flipV=0;flipH=0;glass=0;shadow=1;rotation=0;" vertex="1" parent="1">
          <mxGeometry x="1330" y="352.5" width="940" height="30" as="geometry" />
        </mxCell>
        <mxCell id="0miN6D5ZhB9mtvLMDJml-45" value="volvo-vehicle-test-drive&lt;br&gt;试驾服务" style="rounded=1;whiteSpace=wrap;html=1;" vertex="1" parent="1">
          <mxGeometry x="1330" y="450" width="120" height="60" as="geometry" />
        </mxCell>
        <mxCell id="0miN6D5ZhB9mtvLMDJml-46" value="business-rules-service&lt;br&gt;业务规则" style="rounded=1;whiteSpace=wrap;html=1;" vertex="1" parent="1">
          <mxGeometry x="1459" y="450" width="120" height="60" as="geometry" />
        </mxCell>
        <mxCell id="0miN6D5ZhB9mtvLMDJml-47" value="main-data-service&lt;br&gt;主数据导入平台" style="rounded=1;whiteSpace=wrap;html=1;" vertex="1" parent="1">
          <mxGeometry x="1459" y="515" width="120" height="60" as="geometry" />
        </mxCell>
        <mxCell id="0miN6D5ZhB9mtvLMDJml-48" value="2c-polymerize-service&lt;br&gt;C端聚合服务" style="rounded=1;whiteSpace=wrap;html=1;" vertex="1" parent="1">
          <mxGeometry x="1585" y="450" width="120" height="60" as="geometry" />
        </mxCell>
        <mxCell id="0miN6D5ZhB9mtvLMDJml-49" value="2c-apply-service&lt;br&gt;C端应用微服务" style="rounded=1;whiteSpace=wrap;html=1;" vertex="1" parent="1">
          <mxGeometry x="1710" y="450" width="120" height="60" as="geometry" />
        </mxCell>
        <mxCell id="0miN6D5ZhB9mtvLMDJml-50" value="2c-cooperative-vehicle-service&lt;br&gt;合作车辆服务" style="rounded=1;whiteSpace=wrap;html=1;" vertex="1" parent="1">
          <mxGeometry x="1840" y="450" width="120" height="60" as="geometry" />
        </mxCell>
        <mxCell id="0miN6D5ZhB9mtvLMDJml-51" value="volvo-vehicle-test-drive&lt;br&gt;试驾服务" style="rounded=1;whiteSpace=wrap;html=1;" vertex="1" parent="1">
          <mxGeometry x="1330" y="515" width="120" height="60" as="geometry" />
        </mxCell>
        <mxCell id="0miN6D5ZhB9mtvLMDJml-52" value="mid-end-basicdata-center&lt;br&gt;主数据" style="rounded=1;whiteSpace=wrap;html=1;" vertex="1" parent="1">
          <mxGeometry x="1585" y="515" width="120" height="60" as="geometry" />
        </mxCell>
        <mxCell id="0miN6D5ZhB9mtvLMDJml-53" value="mid-end-invoice-center&lt;br&gt;发票中心" style="rounded=1;whiteSpace=wrap;html=1;" vertex="1" parent="1">
          <mxGeometry x="1710" y="515" width="120" height="60" as="geometry" />
        </mxCell>
        <mxCell id="0miN6D5ZhB9mtvLMDJml-54" value="mid-end-vehicle-center&lt;br&gt;车辆中心" style="rounded=1;whiteSpace=wrap;html=1;" vertex="1" parent="1">
          <mxGeometry x="1840" y="515" width="120" height="60" as="geometry" />
        </mxCell>
        <mxCell id="0miN6D5ZhB9mtvLMDJml-55" value="appointment-center&lt;br&gt;预约中心" style="rounded=1;whiteSpace=wrap;html=1;" vertex="1" parent="1">
          <mxGeometry x="1330" y="580" width="120" height="60" as="geometry" />
        </mxCell>
        <mxCell id="0miN6D5ZhB9mtvLMDJml-56" value="auto-service&lt;br&gt;用车中心" style="rounded=1;whiteSpace=wrap;html=1;" vertex="1" parent="1">
          <mxGeometry x="1459" y="580" width="120" height="60" as="geometry" />
        </mxCell>
        <mxCell id="0miN6D5ZhB9mtvLMDJml-57" value="c-showroom-service展厅服务" style="rounded=1;whiteSpace=wrap;html=1;" vertex="1" parent="1">
          <mxGeometry x="1585" y="580" width="120" height="60" as="geometry" />
        </mxCell>
        <mxCell id="0miN6D5ZhB9mtvLMDJml-58" value="operation-aftersales-bff&lt;br&gt;微服务运维平台bff" style="rounded=1;whiteSpace=wrap;html=1;" vertex="1" parent="1">
          <mxGeometry x="1710" y="580" width="120" height="60" as="geometry" />
        </mxCell>
        <mxCell id="0miN6D5ZhB9mtvLMDJml-59" value="volvo-vehicle-home&lt;br&gt;车首页服务" style="rounded=1;whiteSpace=wrap;html=1;" vertex="1" parent="1">
          <mxGeometry x="1840" y="580" width="120" height="60" as="geometry" />
        </mxCell>
        <mxCell id="0miN6D5ZhB9mtvLMDJml-60" value="volvo-vehicle-car-owner&lt;br&gt;养修爱车" style="rounded=1;whiteSpace=wrap;html=1;" vertex="1" parent="1">
          <mxGeometry x="1330" y="650" width="120" height="60" as="geometry" />
        </mxCell>
        <mxCell id="0miN6D5ZhB9mtvLMDJml-61" value="mid-end-org-center&lt;br&gt;组织中心" style="rounded=1;whiteSpace=wrap;html=1;" vertex="1" parent="1">
          <mxGeometry x="1459" y="650" width="120" height="60" as="geometry" />
        </mxCell>
        <mxCell id="0miN6D5ZhB9mtvLMDJml-62" value="2c-basicdata-service车型主数据C端服务" style="rounded=1;whiteSpace=wrap;html=1;" vertex="1" parent="1">
          <mxGeometry x="1585" y="650" width="120" height="60" as="geometry" />
        </mxCell>
        <mxCell id="0miN6D5ZhB9mtvLMDJml-63" value="2b-basicdata-servicee车型主数据B端服务" style="rounded=1;whiteSpace=wrap;html=1;" vertex="1" parent="1">
          <mxGeometry x="1710" y="650" width="120" height="60" as="geometry" />
        </mxCell>
      </root>
    </mxGraphModel>
  </diagram>
</mxfile>
